<?xml version="1.0" encoding="utf-8"?>
<!-- Generated by IcoMoon.io -->
<!DOCTYPE svg PUBLIC "-//W3C//DTD SVG 1.1//EN" "http://www.w3.org/Graphics/SVG/1.1/DTD/svg11.dtd">
<svg version="1.1" xmlns="http://www.w3.org/2000/svg" xmlns:xlink="http://www.w3.org/1999/xlink" width="32" height="32" viewBox="0 0 32 32">
<path d="M31.094 10.7c-2.313-6.581-8.494-10.7-15.094-10.7-1.756 0-3.55 0.294-5.3 0.906-8.338 2.931-12.719 12.063-9.794 20.394 2.313 6.581 8.494 10.7 15.094 10.7 1.756 0 3.55-0.294 5.3-0.906 8.338-2.931 12.719-12.063 9.794-20.394zM29.975 16.863c-0.113 1.806-0.569 3.55-1.356 5.194-0.788 1.637-1.863 3.087-3.206 4.306-1.387 1.262-2.994 2.219-4.775 2.844-1.506 0.525-3.069 0.794-4.637 0.794-1.425 0-2.844-0.219-4.213-0.65-1.356-0.431-2.631-1.056-3.8-1.869-2.419-1.688-4.213-4.050-5.194-6.838-0.625-1.781-0.881-3.631-0.769-5.5 0.112-1.806 0.569-3.55 1.356-5.194 0.787-1.637 1.862-3.088 3.206-4.306 1.388-1.263 2.994-2.219 4.775-2.844 1.506-0.525 3.069-0.794 4.637-0.794 1.425 0 2.844 0.219 4.213 0.65 1.356 0.431 2.631 1.056 3.8 1.869 2.419 1.688 4.213 4.050 5.194 6.838 0.625 1.781 0.887 3.631 0.769 5.5zM16 9.625c-0.7 0-1.412 0.119-2.113 0.363-3.325 1.169-5.069 4.806-3.9 8.125 0.919 2.625 3.388 4.262 6.013 4.262 0.7 0 1.413-0.119 2.113-0.363 3.325-1.169 5.069-4.806 3.9-8.125-0.919-2.619-3.381-4.262-6.012-4.262zM17.781 21.069c-0.581 0.2-1.175 0.306-1.781 0.306-2.275 0-4.313-1.444-5.069-3.594-0.981-2.794 0.494-5.869 3.287-6.85 0.581-0.2 1.175-0.306 1.781-0.306 2.275 0 4.313 1.444 5.069 3.594 0.981 2.794-0.494 5.869-3.288 6.85z"></path>
</svg>
