<?xml version="1.0" encoding="utf-8"?>
<!-- Generated by IcoMoon.io -->
<!DOCTYPE svg PUBLIC "-//W3C//DTD SVG 1.1//EN" "http://www.w3.org/Graphics/SVG/1.1/DTD/svg11.dtd">
<svg version="1.1" xmlns="http://www.w3.org/2000/svg" xmlns:xlink="http://www.w3.org/1999/xlink" width="32" height="32" viewBox="0 0 32 32">
<path d="M19.575 20.65l1.044 1.144c1.712-1.563 2.656-3.65 2.656-5.869s-0.944-4.3-2.656-5.869l-1.044 1.144c1.387 1.269 2.15 2.944 2.15 4.725 0.006 1.781-0.756 3.463-2.15 4.725zM24.375 6.25l-1.387 1.525c2.394 2.188 3.712 5.081 3.712 8.156s-1.319 5.969-3.712 8.156l1.387 1.525c2.831-2.581 4.387-6.019 4.387-9.681s-1.556-7.1-4.387-9.681zM11.381 21.794l1.044-1.144c-1.387-1.269-2.15-2.944-2.15-4.725s0.762-3.456 2.15-4.725l-1.044-1.137c-1.713 1.563-2.656 3.65-2.656 5.869s0.944 4.3 2.656 5.862zM5.3 15.931c0-3.075 1.319-5.969 3.712-8.156l-1.388-1.525c-2.831 2.581-4.388 6.019-4.388 9.681s1.556 7.1 4.388 9.681l1.388-1.525c-2.394-2.188-3.713-5.088-3.713-8.156zM15.444 18.056v6.025h1.287v-6.025c0.819-0.269 1.406-1.038 1.406-1.944 0-1.131-0.919-2.050-2.050-2.050s-2.050 0.919-2.050 2.050c0.006 0.906 0.594 1.675 1.406 1.944z"></path>
</svg>
