<?xml version="1.0" encoding="utf-8"?>
<!-- Generated by IcoMoon.io -->
<!DOCTYPE svg PUBLIC "-//W3C//DTD SVG 1.1//EN" "http://www.w3.org/Graphics/SVG/1.1/DTD/svg11.dtd">
<svg version="1.1" xmlns="http://www.w3.org/2000/svg" xmlns:xlink="http://www.w3.org/1999/xlink" width="32" height="32" viewBox="0 0 32 32">
<path d="M16 22.352c1.818 0 3.055 1.285 3.055 1.285l-3.055 3.055-3.055-3.055c0 0 1.236-1.285 3.055-1.285zM10.861 21.697c2.836-2.836 7.442-2.836 10.255 0l2.133-2.133c-4-4-10.545-4-14.545 0l2.158 2.133zM6.473 17.309c5.261-5.261 13.794-5.261 19.055 0l2.133-2.133c-6.424-6.449-16.897-6.449-23.321 0l2.133 2.133zM2.085 12.921c7.685-7.661 20.17-7.661 27.83 0l2.133-2.133c-8.849-8.873-23.248-8.873-32.097 0l2.133 2.133z"></path>
</svg>
