<?xml version="1.0" encoding="utf-8"?>
<!DOCTYPE svg PUBLIC "-//W3C//DTD SVG 1.1//EN" "http://www.w3.org/Graphics/SVG/1.1/DTD/svg11.dtd">
<svg version="1.1" xmlns="http://www.w3.org/2000/svg" xmlns:xlink="http://www.w3.org/1999/xlink" width="30" height="32" viewBox="0 0 30 32">
<path d="M22.081 27.85c-0.475-2.125-1.681-4.438-3.425-5.9 1.756-1.3 2.9-3.375 2.9-5.725 0-3.931-3.194-7.125-7.125-7.125s-7.125 3.194-7.125 7.125c0 2.344 1.144 4.419 2.887 5.719-1.75 1.456-2.956 3.775-3.431 5.906-0.138 0.613-0.213 1.206-0.225 1.756h0.287v0.012l15.481-0.012c-0.012-0.556-0.087-1.144-0.225-1.756zM9.275 16.231c0-2.844 2.313-5.156 5.156-5.156s5.156 2.313 5.156 5.156c0 2.844-2.313 5.15-5.156 5.15s-5.156-2.313-5.156-5.15zM11.681 22.8c0.844 0.356 1.775 0.55 2.75 0.55 0.969 0 1.894-0.194 2.737-0.55 1.656 1.113 2.869 3.256 3.344 5.238h-12.181c0.475-1.981 1.694-4.125 3.35-5.238zM19.175 1.125l-0.044 1.575c2.6 0.075 5.012 1.163 6.8 3.056s2.731 4.369 2.656 6.969l1.575 0.044c0.188-6.237-4.744-11.463-10.988-11.644zM19.469 4.681l-0.044 1.575c1.544 0.044 2.988 0.694 4.050 1.819 1.069 1.131 1.625 2.6 1.581 4.15l1.575 0.044c0.056-1.969-0.656-3.844-2.012-5.275s-3.181-2.256-5.15-2.313zM19.756 8.244l-0.044 1.575c1.025 0.031 1.837 0.887 1.806 1.919l1.575 0.044c0.056-1.9-1.444-3.487-3.337-3.537z"></path>
</svg>
